<svg width="28" height="32" viewBox="0 0 28 32" fill="none" xmlns="http://www.w3.org/2000/svg">
<g clip-path="url(#clip0_489_2)">
<path d="M28.027 4.89739C24.2859 4.53599 23.5833 3.83858 23.2202 0.126121C23.216 0.0913536 23.1991 0.0593181 23.1727 0.0360766C23.1463 0.0128351 23.1123 0 23.077 0C23.0417 0 23.0077 0.0128351 22.9813 0.0360766C22.9549 0.0593181 22.938 0.0913536 22.9338 0.126121C22.5698 3.83959 21.8671 4.53701 18.1271 4.89739C18.092 4.90155 18.0598 4.91832 18.0363 4.94451C18.0129 4.9707 18 5.0045 18 5.03952C18 5.07453 18.0129 5.10833 18.0363 5.13452C18.0598 5.16071 18.092 5.17748 18.1271 5.18164C21.8682 5.54202 22.5708 6.23944 22.9338 9.95291C22.938 9.98768 22.9549 10.0197 22.9813 10.043C23.0077 10.0662 23.0417 10.079 23.077 10.079C23.1123 10.079 23.1463 10.0662 23.1727 10.043C23.1991 10.0197 23.216 9.98768 23.2202 9.95291C23.5833 6.23944 24.2859 5.54202 28.027 5.18164C28.062 5.17748 28.0943 5.16071 28.1177 5.13452C28.1411 5.10833 28.154 5.07453 28.154 5.03952C28.154 5.0045 28.1411 4.9707 28.1177 4.94451C28.0943 4.91832 28.062 4.90155 28.027 4.89739V4.89739Z" fill="white"/>
<path d="M21.4955 9.68569C21.4949 8.81811 21.1473 7.98627 20.529 7.37308C19.9106 6.75989 19.0723 6.41558 18.1982 6.41585H13.1C9.53274 4.42511 5.83868 4.09214 3.19495 5.90826C-1.27127 8.97203 -1.02582 17.0081 3.74415 23.8564C4.46079 24.887 5.26081 25.858 6.13629 26.7597V31.998H10.5186C11.3228 31.9994 12.0995 31.7075 12.7011 31.1777C15.5647 32.2254 18.3516 32.1503 20.4656 30.6996C24.3714 28.0185 24.6731 21.5347 21.4955 15.3706V9.68569ZM19.5247 14.8356C19.5834 14.8314 19.6425 14.8366 19.6996 14.8508C19.7099 14.8549 19.7195 14.8603 19.7282 14.8671C19.7375 14.8737 19.746 14.8812 19.7538 14.8894C19.7702 14.9067 19.7865 14.926 19.8039 14.9412L19.7763 14.9686L19.7507 14.996C19.7347 15.0133 19.7147 15.0265 19.6924 15.0346C19.6251 15.0478 19.5564 15.0522 19.4879 15.0478C18.5071 15.062 17.5263 15.0701 16.5455 15.0935C16.2394 15.0976 15.9368 15.1593 15.6537 15.2752C15.2179 15.4676 14.8508 15.786 14.6003 16.1888C14.2781 16.6739 14.0878 17.2334 14.048 17.8131C14.0409 17.9146 14.0347 18.0242 14.0276 18.1298C13.9928 18.746 13.9877 19.3764 13.9846 19.9571C13.9846 20.5205 13.9846 21.0829 13.9846 21.6453C13.9873 21.7224 13.9801 21.7995 13.9632 21.8748C13.9551 21.8962 13.9422 21.9155 13.9256 21.9313C13.9089 21.9472 13.8889 21.959 13.867 21.9661C13.8046 21.9824 13.7709 21.9286 13.7647 21.8727C13.7527 21.7904 13.7462 21.7073 13.7453 21.624C13.7504 20.8941 13.7688 20.1642 13.7596 19.4353C13.7525 18.8882 13.7269 18.341 13.6809 17.7968C13.6386 17.2262 13.4522 16.6753 13.1388 16.1949C12.7226 15.5615 12.155 15.1595 11.3767 15.1057C10.9083 15.0732 10.4378 15.0508 9.96842 15.0427C9.38035 15.0326 8.79126 15.0427 8.2032 15.0427C8.12876 15.0442 8.05466 15.0325 7.98434 15.0082C7.90559 14.9788 7.90559 14.8996 7.98434 14.864C8.03532 14.8421 8.09037 14.831 8.14593 14.8316C8.85365 14.8316 9.56035 14.8366 10.267 14.8234C10.6925 14.8153 11.12 14.7909 11.5424 14.7432C12.2388 14.6641 12.739 14.2681 13.1184 13.7088C13.4406 13.2196 13.6352 12.6587 13.685 12.0764C13.7598 11.2139 13.7851 10.348 13.7607 9.48266L13.7515 8.73956C13.7515 8.57307 13.7515 8.40658 13.7463 8.2401V8.22994C13.746 8.1493 13.7528 8.06879 13.7668 7.98935C13.7694 7.97929 13.7729 7.96945 13.777 7.95991V7.95281C13.7806 7.9439 13.7862 7.93592 13.7934 7.92946V7.92946C13.8007 7.92234 13.8094 7.91681 13.819 7.91321H13.8271C13.8394 7.90929 13.8521 7.90724 13.865 7.90712C13.8735 7.90606 13.8821 7.90606 13.8905 7.90712H13.8977L13.912 7.9122H13.9192L13.9294 7.92032H13.9345L13.9437 7.93149L13.9529 7.94976C13.9529 7.95483 13.9529 7.96093 13.958 7.96702C13.9632 7.97311 13.958 7.97209 13.958 7.97412C13.9585 7.97715 13.9585 7.98023 13.958 7.98326C13.9585 7.98492 13.9585 7.98668 13.958 7.98833C13.9586 7.9917 13.9586 7.99512 13.958 7.99849C13.9701 8.07878 13.9756 8.15993 13.9744 8.24111V8.27461V8.65834C13.9744 8.7294 13.9744 8.80148 13.9744 8.87254C13.9744 9.06746 13.9744 9.26338 13.9693 9.45829C13.9693 9.57707 13.9693 9.69584 13.9693 9.81462C13.9693 9.89786 13.9693 9.9811 13.9693 10.0643C13.9693 10.2674 13.9693 10.4704 13.9693 10.6674C13.9578 11.2396 13.9982 11.8118 14.09 12.3769C14.2372 13.1504 14.5635 13.8245 15.1986 14.327C15.4951 14.5624 15.8561 14.7039 16.2346 14.7331C16.7296 14.7747 17.2277 14.8001 17.7257 14.8113C18.3281 14.8417 18.9295 14.8346 19.5247 14.8356ZM5.74152 22.0666C1.61791 16.1452 1.40417 9.19942 5.26288 6.55086C7.25719 5.18344 9.94796 5.23115 12.652 6.41382H9.43353C9.00058 6.41368 8.57184 6.49821 8.17181 6.66258C7.77178 6.82695 7.40828 7.06793 7.10209 7.37177C6.7959 7.6756 6.55301 8.03634 6.38729 8.43336C6.22158 8.83039 6.13629 9.25593 6.13629 9.68569V22.6138C6.00265 22.4351 5.87106 22.2527 5.74152 22.0666ZM20.1946 27.9911C18.4498 29.189 16.1702 29.3027 13.8159 28.52V23.4706H18.1982C18.6313 23.4707 19.0601 23.3862 19.4602 23.2217C19.8603 23.0573 20.2238 22.8162 20.53 22.5123C20.8362 22.2084 21.0791 21.8475 21.2448 21.4503C21.4104 21.0532 21.4956 20.6276 21.4955 20.1977V15.5929C23.7935 20.6576 23.3906 25.7984 20.1946 27.9911Z" fill="white"/>
</g>
<defs>
<clipPath id="clip0_489_2">
<rect width="28" height="32" fill="white"/>
</clipPath>
</defs>
</svg>
