<svg width="135" height="30" viewBox="0 0 135 30" fill="none" xmlns="http://www.w3.org/2000/svg">
<g clip-path="url(#clip0_11_188)">
<path d="M18.5172 0.0328674H21.2657C22.1016 0.0328674 22.9293 0.193157 23.7016 0.504583C24.4739 0.81601 25.1756 1.27247 25.7667 1.84792C26.3578 2.42336 26.8266 3.10651 27.1465 3.85836C27.4664 4.61021 27.6311 5.41603 27.6311 6.22983V29.7479H24.8826C23.1944 29.7479 21.5753 29.095 20.3816 27.9329C19.1878 26.7707 18.5172 25.1945 18.5172 23.551V0.0328674Z" fill="#056FD8"/>
<path d="M40.3763 10.0235C39.6475 10.0238 38.9391 10.2578 38.3606 10.6894C37.7821 11.121 37.3657 11.7261 37.1759 12.4111C37.1759 12.4957 37.1759 12.5802 37.1759 12.6663C37.1759 12.7525 37.1759 12.8229 37.1759 12.9075C37.1759 13.136 37.1759 13.3631 37.1759 13.5901C37.1759 13.7279 37.1759 13.8672 37.1759 14.005C37.1759 14.1021 37.1759 14.1991 37.1759 14.2946C37.1759 14.5295 37.1759 14.7643 37.1759 14.9976C37.1639 15.6633 37.2123 16.3287 37.3207 16.9861C37.496 17.8879 37.882 18.6723 38.6362 19.2563C38.9877 19.53 39.4161 19.6937 39.8649 19.726C40.4535 19.7745 41.0454 19.8043 41.634 19.8168C42.3432 19.8309 43.0524 19.8168 43.7617 19.8168C43.8318 19.8121 43.9024 19.8179 43.9707 19.834C43.9893 19.8418 44.0062 19.853 44.0206 19.8669C44.0447 19.8888 44.0688 19.917 44.093 19.9405L44.0624 19.9702L44.0302 20.0031C44.0203 20.0133 44.0095 20.0227 43.9981 20.0313C43.9869 20.0392 43.9744 20.045 43.9611 20.0485C43.8816 20.0633 43.8006 20.0685 43.7198 20.0642C42.5555 20.0798 41.3927 20.0892 40.2284 20.1158C39.865 20.1215 39.506 20.1938 39.1702 20.3288C38.6533 20.5527 38.2178 20.9232 37.9206 21.3919C37.5371 21.9574 37.311 22.6102 37.2644 23.2864C37.2547 23.4085 37.2483 23.5306 37.2403 23.6543C37.1985 24.3714 37.192 25.1057 37.1888 25.7867C37.1888 26.4412 37.1888 27.0956 37.1888 27.7517C37.1909 27.8411 37.1822 27.9304 37.1631 28.0178C37.1531 28.0426 37.1377 28.0649 37.118 28.0833C37.0983 28.1017 37.0747 28.1157 37.0489 28.1243C36.9749 28.1431 36.9347 28.0805 36.9251 28.0163C36.9112 27.9198 36.9036 27.8225 36.9025 27.7251C36.9025 26.8765 36.9299 26.0279 36.9186 25.1777C36.9186 24.542 36.88 23.9048 36.827 23.2707C36.7752 22.6072 36.554 21.9668 36.1837 21.4075C35.6899 20.6701 35.0145 20.202 34.093 20.1393C33.5365 20.1007 32.9795 20.0762 32.422 20.0657C31.724 20.0532 31.0244 20.0657 30.3313 20.0657C30.2433 20.0678 30.1556 20.0545 30.0724 20.0266C29.9791 19.9922 29.9791 19.8998 30.0724 19.8575C30.1329 19.8324 30.198 19.8196 30.2638 19.8199C31.1032 19.8199 31.9427 19.8199 32.7822 19.8105C33.2872 19.8011 33.7938 19.773 34.2956 19.7182C35.1206 19.6258 35.7157 19.1639 36.166 18.5126C36.5484 17.9436 36.7794 17.291 36.8382 16.6134C36.9272 15.6097 36.9567 14.6018 36.9267 13.5948C36.9267 13.3067 36.9267 13.0186 36.917 12.7305C36.917 12.6131 36.917 12.4941 36.917 12.3767C36.6877 11.6886 36.2392 11.0896 35.6365 10.6665C35.0339 10.2433 34.3085 10.0181 33.5655 10.0235H31.2625C30.3834 10.0235 29.5403 10.3634 28.9187 10.9686C28.2971 11.5738 27.9479 12.3945 27.9479 13.2503V23.7106C27.9293 23.8744 27.9196 24.0391 27.9189 24.2038V25.317C27.9196 25.4818 27.9293 25.6464 27.9479 25.8102V26.5273C27.9487 27.3826 28.2983 28.2025 28.9198 28.807C29.5414 29.4115 30.3839 29.751 31.2625 29.751H46.1467V26.9438C46.1661 26.8052 46.1758 26.6656 46.1756 26.5257V10.0235H40.3763Z" fill="#056FD8"/>
<path d="M83.21 10.144H68.8967C67.859 10.144 66.8637 10.5454 66.1299 11.2598C65.3961 11.9741 64.9839 12.9431 64.9839 13.9533V26.1907C64.9839 27.201 65.3961 28.1699 66.1299 28.8843C66.8637 29.5987 67.859 30 68.8967 30H79.2988C80.3364 29.9996 81.3314 29.5981 82.0651 28.8838C82.7988 28.1695 83.2112 27.2009 83.2116 26.1907L83.21 10.144ZM81.0485 20.2223C81.0376 20.2296 81.0257 20.2354 81.0132 20.2396C80.9332 20.2543 80.8516 20.2596 80.7703 20.2552C79.6076 20.2709 78.4432 20.2803 77.2788 20.3069C76.9155 20.3126 76.5565 20.3848 76.2206 20.5198C75.7037 20.7438 75.2683 21.1143 74.971 21.5829C74.5884 22.1481 74.3628 22.8004 74.3165 23.4758C74.3068 23.5995 74.2988 23.7216 74.2923 23.8453C74.2505 24.5624 74.2441 25.2967 74.2409 25.9778C74.2409 26.6322 74.2409 27.2867 74.2409 27.9411C74.2446 28.0311 74.236 28.1211 74.2152 28.2089C74.2055 28.2338 74.1902 28.2563 74.1705 28.2747C74.1507 28.2931 74.127 28.307 74.101 28.3153C74.027 28.3341 73.9868 28.2715 73.9787 28.2073C73.9633 28.111 73.9557 28.0136 73.9562 27.9161C73.9562 27.0675 73.9836 26.2189 73.9723 25.3687C73.9723 24.7331 73.9337 24.0958 73.879 23.4617C73.829 22.7979 73.6077 22.157 73.2357 21.5986C72.742 20.8611 72.0682 20.393 71.145 20.3304C70.5886 20.2917 70.0311 20.2672 69.4725 20.2568C68.7745 20.2442 68.0765 20.2568 67.3818 20.2568C67.2938 20.2581 67.2063 20.2448 67.1228 20.2176C67.0296 20.1832 67.0296 20.0908 67.1228 20.0485C67.1839 20.0235 67.2496 20.0107 67.3158 20.011C68.1537 20.011 68.9932 20.011 69.8327 20.0016C70.3377 19.9922 70.8443 19.964 71.3461 19.9076C72.1727 19.8168 72.7661 19.3549 73.2164 18.7036C73.5989 18.1346 73.8299 17.482 73.8887 16.8044C73.9774 15.8007 74.0074 14.7929 73.9787 13.7858L73.9691 12.9216C73.9691 12.7274 73.9691 12.5333 73.9691 12.3391V12.3282C73.9687 12.2342 73.9774 12.1404 73.9948 12.0479C73.9969 12.036 74.0007 12.0244 74.0061 12.0135V12.0056C74.011 11.9958 74.0175 11.9868 74.0254 11.979C74.0342 11.9705 74.0446 11.9636 74.0559 11.9587H74.0656C74.0805 11.9568 74.0957 11.9568 74.1106 11.9587H74.1412H74.1589H74.1669L74.1798 11.9681L74.191 11.9806C74.1957 11.9868 74.1995 11.9937 74.2023 12.0009C74.2016 12.0077 74.2016 12.0145 74.2023 12.0213C74.2013 12.0238 74.2013 12.0266 74.2023 12.0291C74.2023 12.0291 74.2023 12.0291 74.2023 12.0401C74.2015 12.0437 74.2015 12.0474 74.2023 12.051C74.2162 12.1449 74.2221 12.2397 74.22 12.3344V12.3736C74.22 12.4456 74.22 12.5192 74.22 12.5928C74.22 12.7493 74.22 12.9059 74.22 13.0625C74.22 13.2911 74.22 13.5181 74.22 13.7451C74.22 13.8829 74.22 14.0207 74.22 14.16C74.22 14.2571 74.22 14.3542 74.22 14.4497C74.22 14.6845 74.22 14.9194 74.22 15.1527C74.2074 15.8183 74.2553 16.4837 74.3631 17.1411C74.5384 18.0413 74.926 18.8273 75.6786 19.4113C76.0306 19.6853 76.4595 19.849 76.9089 19.881C77.496 19.9295 78.0878 19.9593 78.678 19.9718C79.3872 19.9859 80.0981 19.9718 80.8073 19.9718C80.877 19.9672 80.9469 19.973 81.0148 19.989C81.0398 19.9987 81.0619 20.0143 81.0791 20.0344C81.0977 20.0554 81.1176 20.0753 81.1386 20.0939C81.1328 20.0988 81.1275 20.104 81.1225 20.1096C81.1015 20.1493 81.0767 20.1871 81.0485 20.2223Z" fill="#056FD8"/>
<path d="M14.3149 0.00332642H3.91283C2.87509 0.00332642 1.87984 0.404663 1.14604 1.11905C0.412244 1.83343 0 2.80234 0 3.81262V29.7826H5.20103C5.71541 29.7834 6.22491 29.6855 6.70038 29.4944C7.17585 29.3033 7.60796 29.0229 7.97198 28.6691C8.336 28.3153 8.62479 27.895 8.82184 27.4325C9.01888 26.9699 9.1203 26.474 9.1203 25.9733V19.8546H14.3149C15.3526 19.8546 16.3479 19.4533 17.0817 18.7389C17.8155 18.0245 18.2277 17.0556 18.2277 16.0453V3.80949C18.2269 2.79975 17.8143 1.83164 17.0805 1.11794C16.3468 0.404232 15.3521 0.00332607 14.3149 0.00332642ZM16.219 9.92974L16.1885 9.96105C16.1772 9.97045 16.1676 9.98297 16.1563 9.99236C16.1378 10.0132 16.1139 10.0288 16.0872 10.0378C16.0078 10.0533 15.9267 10.0585 15.8459 10.0534C14.6816 10.0707 13.5172 10.0785 12.3545 10.1067C11.9911 10.1111 11.632 10.1828 11.2962 10.318C10.7788 10.5425 10.3428 10.9135 10.045 11.3827C9.66298 11.9482 9.4375 12.6003 9.39048 13.2756C9.38083 13.3977 9.3744 13.5214 9.36636 13.6435C9.32454 14.3606 9.31811 15.0949 9.31489 15.776C9.31489 16.4304 9.31489 17.0865 9.31489 17.7409C9.31583 17.8312 9.30447 17.9213 9.28112 18.0086C9.27182 18.0335 9.25686 18.056 9.23737 18.0744C9.21787 18.0929 9.19434 18.1068 9.16854 18.1151C9.09457 18.1323 9.05436 18.0697 9.04471 18.0055C9.03075 17.9095 9.02323 17.8128 9.02219 17.7159C9.02219 16.8657 9.04954 16.0171 9.03828 15.1685C9.0297 14.5318 8.99914 13.8961 8.94661 13.2615C8.89575 12.5973 8.67457 11.9562 8.30331 11.3968C7.80959 10.6593 7.13574 10.1912 6.21261 10.1286C5.65616 10.091 5.0981 10.0644 4.54165 10.055C3.84368 10.044 3.1441 10.055 2.45095 10.055C2.36294 10.0571 2.27525 10.0438 2.19202 10.0159C2.09714 9.98141 2.09875 9.88903 2.19202 9.84832C2.2524 9.8227 2.31753 9.80938 2.3834 9.80918C3.2229 9.80918 4.0624 9.80918 4.90029 9.80135C5.40688 9.79196 5.91348 9.76378 6.41525 9.70741C7.24027 9.61504 7.83371 9.15473 8.28562 8.50341C8.66845 7.93277 8.89997 7.27863 8.95947 6.59954C9.04844 5.59529 9.07797 4.58689 9.04793 3.57934L9.03828 2.71509C9.03828 2.52094 9.03828 2.3268 9.03828 2.13265V2.12169C9.03739 2.02775 9.04546 1.93392 9.0624 1.84143C9.06495 1.82961 9.06872 1.81807 9.07366 1.80699C9.07819 1.79648 9.08473 1.78692 9.09296 1.77881C9.10213 1.77111 9.11243 1.76477 9.12351 1.76002H9.13316C9.14755 1.75475 9.16282 1.75209 9.17819 1.75219H9.21036H9.2184H9.23448L9.24735 1.76159L9.257 1.77411C9.26117 1.78098 9.26442 1.78835 9.26665 1.79603C9.26756 1.80279 9.26756 1.80963 9.26665 1.81638C9.26764 1.8189 9.26764 1.82169 9.26665 1.82421V1.83361C9.26743 1.83775 9.26743 1.84199 9.26665 1.84613C9.28118 1.9399 9.28763 2.0347 9.28594 2.12952V2.19528C9.28594 2.34402 9.28594 2.49276 9.28594 2.64306C9.28594 2.72604 9.28594 2.80903 9.28594 2.89201C9.28594 3.11903 9.28594 3.34605 9.28594 3.57308C9.28594 3.71242 9.28594 3.8502 9.28594 3.98798C9.28594 4.08506 9.28594 4.18213 9.28594 4.2792C9.28594 4.51249 9.28594 4.7489 9.28594 4.98063C9.27381 5.64681 9.32224 6.31273 9.43069 6.9706C9.60598 7.87087 9.99196 8.65527 10.7446 9.23927C11.0972 9.51212 11.5258 9.67574 11.9749 9.70898C12.5635 9.75751 13.1537 9.7857 13.744 9.79822C14.4532 9.81388 15.1624 9.79822 15.8717 9.79822C15.9419 9.7933 16.0126 9.79964 16.0807 9.81701C16.0929 9.82087 16.1043 9.82669 16.1145 9.83423L16.1451 9.86085L16.203 9.92191L16.219 9.92974Z" fill="#056FD8"/>
<path d="M64.6928 9.95929H55.6079V3.38343C55.607 2.52816 55.2575 1.7082 54.636 1.10372C54.0144 0.49924 53.1719 0.159698 52.2933 0.159698H46.494V13.9079C46.4746 14.0711 46.465 14.2353 46.4651 14.3996V15.5143C46.465 15.6786 46.4746 15.8428 46.494 16.0059V23.8344C46.4746 23.9981 46.465 24.1627 46.4651 24.3275V25.4407C46.465 25.6055 46.4746 25.7702 46.494 25.9339V26.651C46.4943 27.0746 46.5802 27.4939 46.7468 27.8852C46.9135 28.2764 47.1577 28.6318 47.4655 28.9312C47.7733 29.2305 48.1386 29.4679 48.5407 29.6298C48.9427 29.7917 49.3735 29.8749 49.8086 29.8747H64.6944V23.4883C64.6949 22.7624 64.4701 22.0533 64.0493 21.454C63.6286 20.8547 63.0316 20.3932 62.3368 20.1299C61.1467 20.1472 59.9582 20.155 58.7697 20.1832C58.4059 20.1885 58.0465 20.2602 57.7099 20.3945C57.1929 20.6191 56.7574 20.9901 56.4603 21.4592C56.0776 22.0245 55.8521 22.6767 55.8057 23.3521C55.7961 23.4742 55.788 23.5979 55.7816 23.7216C55.7398 24.4387 55.7333 25.173 55.7301 25.8541C55.7301 26.5085 55.7301 27.163 55.7301 27.8174C55.7338 27.9074 55.7251 27.9974 55.7044 28.0852C55.6949 28.1102 55.6797 28.1328 55.6599 28.1512C55.6402 28.1697 55.6163 28.1835 55.5902 28.1916V11.8256C55.6003 11.8239 55.6107 11.8239 55.6208 11.8256H55.6304H55.6465H55.6545L55.6674 11.8334L55.6771 11.8459L55.6867 11.8663C55.6867 11.8663 55.6867 11.8788 55.6867 11.8866C55.6867 11.8945 55.6867 11.8866 55.6867 11.8866C55.6867 11.8866 55.6867 11.8945 55.6867 11.8976C55.6867 11.8976 55.6867 11.8976 55.6867 11.9086C55.6875 11.9153 55.6875 11.9222 55.6867 11.9289V11.9367C55.6977 12.0214 55.7031 12.1066 55.7028 12.192C55.7019 12.2039 55.7019 12.216 55.7028 12.228C55.7028 12.3845 55.7028 12.5301 55.7028 12.682C55.7028 12.7619 55.7028 12.8386 55.7028 12.9231C55.7028 13.1501 55.7028 13.3787 55.7028 13.6058C55.7028 13.7514 55.7028 13.897 55.7028 14.0426C55.7028 14.1318 55.7028 14.2211 55.7028 14.3103C55.7028 14.5436 55.7028 14.78 55.7028 15.0117C55.6901 15.6779 55.738 16.3438 55.8459 17.0017C56.0212 17.902 56.4088 18.688 57.1615 19.272C57.5143 19.5444 57.9427 19.708 58.3918 19.7417C58.9804 19.7897 59.5701 19.8199 60.1608 19.8325C60.87 19.8466 61.5809 19.8325 62.2901 19.8325C62.3599 19.8277 62.4299 19.8341 62.4976 19.8513C62.5205 19.8608 62.5413 19.8746 62.5587 19.892H64.6864L64.6928 9.95929Z" fill="#056FD8"/>
<path d="M88.7006 0.280243H91.449C92.285 0.280243 93.1127 0.440532 93.885 0.751959C94.6573 1.06339 95.359 1.51985 95.9501 2.09529C96.5411 2.67073 97.01 3.35388 97.3299 4.10573C97.6498 4.85758 97.8144 5.66341 97.8144 6.4772V29.9969H95.066C94.2299 29.9969 93.402 29.8365 92.6297 29.525C91.8573 29.2135 91.1555 28.7569 90.5644 28.1813C89.9733 27.6056 89.5044 26.9223 89.1846 26.1703C88.8648 25.4183 88.7004 24.6123 88.7006 23.7983V0.280243Z" fill="#056FD8"/>
<path d="M112.494 9.95929H102.092C101.055 9.95929 100.059 10.3606 99.3255 11.075C98.5917 11.7894 98.1794 12.7583 98.1794 13.7686V26.006C98.1794 27.0162 98.5917 27.9852 99.3255 28.6995C100.059 29.4139 101.055 29.8152 102.092 29.8152H116.406V13.7686C116.406 12.7586 115.994 11.7899 115.26 11.0756C114.527 10.3612 113.532 9.9597 112.494 9.95929ZM114.246 20.0438C114.235 20.0517 114.223 20.0576 114.21 20.0611C114.13 20.0758 114.049 20.0811 113.967 20.0767C112.805 20.0924 111.64 20.1018 110.476 20.1284C110.113 20.1341 109.754 20.2063 109.418 20.3413C108.901 20.5653 108.465 20.9358 108.168 21.4044C107.785 21.9701 107.56 22.6229 107.514 23.2989C107.504 23.421 107.496 23.5431 107.488 23.6668C107.448 24.3839 107.441 25.1182 107.438 25.7993C107.438 26.4537 107.438 27.1087 107.438 27.7642C107.442 27.8536 107.433 27.9432 107.412 28.0304C107.403 28.0553 107.387 28.0778 107.368 28.0962C107.348 28.1146 107.324 28.1285 107.298 28.1368C107.224 28.1556 107.184 28.093 107.176 28.0288C107.16 27.9325 107.153 27.8351 107.153 27.7376C107.153 26.889 107.181 26.0404 107.169 25.1902C107.169 24.5546 107.131 23.9173 107.076 23.2832C107.026 22.6194 106.805 21.9786 106.433 21.4201C105.939 20.6826 105.265 20.2145 104.342 20.1519C103.786 20.1132 103.228 20.0887 102.67 20.0783C101.972 20.0658 101.274 20.0783 100.579 20.0783C100.491 20.0803 100.403 20.0671 100.32 20.0391C100.227 20.0047 100.227 19.9123 100.32 19.87C100.381 19.845 100.447 19.8322 100.513 19.8325C101.351 19.8325 102.19 19.8325 103.03 19.8231C103.535 19.8137 104.041 19.7855 104.543 19.7307C105.37 19.6383 105.963 19.1764 106.414 18.5251C106.796 17.9561 107.027 17.3035 107.086 16.626C107.175 15.6222 107.205 14.6144 107.176 13.6073L107.166 12.7431C107.166 12.5489 107.166 12.3548 107.166 12.1606V12.1497C107.166 12.0557 107.175 11.9619 107.192 11.8694C107.194 11.8575 107.198 11.8459 107.203 11.835V11.8271C107.208 11.8173 107.215 11.8084 107.223 11.8005C107.231 11.792 107.242 11.7851 107.253 11.7802H107.263C107.278 11.7783 107.293 11.7783 107.308 11.7802H107.338H107.346H107.364H107.372L107.385 11.7896L107.396 11.8021C107.401 11.8083 107.405 11.8152 107.407 11.8224C107.407 11.8292 107.407 11.836 107.407 11.8428C107.407 11.8459 107.407 11.8491 107.407 11.8522C107.407 11.8522 107.407 11.8522 107.407 11.8616C107.407 11.8652 107.407 11.8689 107.407 11.8726C107.421 11.9664 107.427 12.0612 107.425 12.1559V12.2154C107.425 12.2875 107.425 12.361 107.425 12.4346C107.425 12.5912 107.425 12.7478 107.425 12.9043C107.425 13.1329 107.425 13.3599 107.425 13.587C107.425 13.7248 107.425 13.8641 107.425 14.0019C107.425 14.0989 107.425 14.196 107.425 14.2915C107.425 14.5264 107.425 14.7612 107.425 14.9945C107.413 15.6601 107.46 16.3255 107.568 16.9829C107.744 17.8848 108.131 18.6692 108.884 19.2532C109.236 19.5271 109.665 19.6909 110.114 19.7229C110.701 19.7714 111.293 19.8012 111.883 19.8137C112.592 19.8278 113.303 19.8137 114.013 19.8137C114.082 19.8091 114.152 19.8149 114.22 19.8309C114.245 19.8406 114.267 19.8562 114.284 19.8763C114.304 19.8967 114.323 19.9186 114.344 19.9374L114.328 19.9515C114.303 19.9845 114.276 20.0154 114.246 20.0438Z" fill="#056FD8"/>
<path d="M134.998 26.0091V13.7717C134.998 12.7614 134.586 11.7925 133.852 11.0781C133.119 10.3638 132.123 9.96243 131.086 9.96243H125.878V3.84375C125.878 2.83346 125.466 1.86455 124.732 1.15017C123.998 0.435786 123.003 0.0344543 121.965 0.0344543H116.771V26.0091C116.771 27.0191 117.183 27.9876 117.917 28.7017C118.651 29.4157 119.646 29.8168 120.683 29.8168H131.086C131.599 29.817 132.108 29.7187 132.583 29.5274C133.057 29.3362 133.489 29.0557 133.852 28.7021C134.216 28.3485 134.504 27.9287 134.7 27.4666C134.897 27.0045 134.998 26.5093 134.998 26.0091ZM132.991 19.8873C132.97 19.9061 132.953 19.928 132.932 19.9483C132.922 19.958 132.912 19.9669 132.901 19.975C132.891 19.983 132.88 19.9894 132.867 19.9937C132.8 20.0098 132.73 20.0156 132.66 20.011C131.951 20.011 131.24 20 130.531 20.011C129.941 20.0235 129.351 20.0532 128.762 20.1002C128.312 20.1334 127.884 20.2971 127.531 20.5699C126.779 21.1539 126.391 21.9383 126.216 22.8386C126.108 23.4965 126.06 24.1624 126.073 24.8286C126.073 25.0634 126.073 25.2983 126.073 25.53C126.073 25.6271 126.073 25.7241 126.073 25.8212C126.073 25.959 126.073 26.0983 126.073 26.2361C126.073 26.4631 126.073 26.6902 126.073 26.9172C126.073 27.0017 126.073 27.0847 126.073 27.1677C126.073 27.3164 126.073 27.4652 126.073 27.6139V27.653C126.075 27.7478 126.069 27.8426 126.055 27.9364C126.055 27.9364 126.055 27.9364 126.055 27.9474C126.055 27.9474 126.055 27.9474 126.055 27.9568C126.054 27.9599 126.054 27.9631 126.055 27.9662C126.055 27.9662 126.055 27.9787 126.055 27.9865C126.052 27.9936 126.048 28.0005 126.044 28.0069L126.034 28.0194L126.021 28.0288H126.013H125.995H125.965C125.95 28.0307 125.935 28.0307 125.92 28.0288H125.91C125.899 28.0244 125.889 28.0181 125.88 28.01C125.872 28.0018 125.866 27.9929 125.86 27.9834C125.86 27.9834 125.86 27.9834 125.86 27.9756C125.856 27.9643 125.852 27.9528 125.849 27.9411C125.831 27.8488 125.823 27.7549 125.825 27.6609V27.6499C125.825 27.4558 125.825 27.2616 125.825 27.0675L125.835 26.2032C125.863 25.1962 125.833 24.1883 125.745 23.1846C125.686 22.5066 125.455 21.8534 125.072 21.2839C124.622 20.6341 124.029 20.1722 123.202 20.0799C122.7 20.0251 122.194 19.9969 121.689 19.9875C120.849 19.9718 120.011 19.9875 119.172 19.9781C119.105 19.9783 119.04 19.9656 118.979 19.9405C118.887 19.8982 118.887 19.8059 118.979 19.7714C119.062 19.7435 119.15 19.7302 119.238 19.7323C119.937 19.7323 120.635 19.7432 121.328 19.7323C121.886 19.7229 122.444 19.6963 123.001 19.6587C123.924 19.5961 124.598 19.1279 125.092 18.3905C125.463 17.8319 125.685 17.1911 125.735 16.5273C125.79 15.8927 125.821 15.2565 125.828 14.6188C125.839 13.7702 125.817 12.9216 125.812 12.0714C125.812 11.9744 125.819 11.8776 125.835 11.7818C125.843 11.7176 125.883 11.6549 125.957 11.6722C125.983 11.6808 126.006 11.6948 126.026 11.7131C126.046 11.7315 126.061 11.7539 126.071 11.7786C126.092 11.8664 126.1 11.9564 126.097 12.0464C126.097 12.7019 126.097 13.3568 126.097 14.0113C126.097 14.6924 126.106 15.4204 126.148 16.1437C126.148 16.2659 126.163 16.3895 126.172 16.5117C126.219 17.1871 126.444 17.8393 126.827 18.4046C127.124 18.8741 127.559 19.2452 128.077 19.4692C128.413 19.6043 128.773 19.6761 129.136 19.6806C130.299 19.7088 131.463 19.7182 132.628 19.7338C132.709 19.7295 132.79 19.7348 132.869 19.7495C132.896 19.7588 132.919 19.7744 132.938 19.7949L132.969 19.8278L133.001 19.8575L132.991 19.8873Z" fill="#056FD8"/>
</g>
<defs>
<clipPath id="clip0_11_188">
<rect width="135" height="30" fill="white"/>
</clipPath>
</defs>
</svg>
