<svg width="51" height="51" viewBox="0 0 51 51" fill="none" xmlns="http://www.w3.org/2000/svg">
<g clip-path="url(#clip0_1_11)">
<path d="M50.3469 26.2144C31.5689 28.0446 28.0377 31.5689 26.2143 50.3469C26.197 50.5252 26.1139 50.6907 25.9812 50.811C25.8485 50.9314 25.6758 50.9981 25.4966 50.9981C25.3174 50.9981 25.1447 50.9314 25.012 50.811C24.8793 50.6907 24.7962 50.5252 24.7788 50.3469C22.9554 31.5689 19.4243 28.0446 0.646329 26.2144C0.468016 26.197 0.302532 26.1139 0.182151 25.9812C0.0617689 25.8485 -0.00488281 25.6758 -0.00488281 25.4966C-0.00488281 25.3175 0.0617689 25.1447 0.182151 25.012C0.302532 24.8794 0.468016 24.7962 0.646329 24.7788C19.4243 22.9555 22.9554 19.4312 24.7788 0.653173C24.7962 0.47486 24.8793 0.309401 25.012 0.189019C25.1447 0.0686377 25.3174 0.00195313 25.4966 0.00195312C25.6758 0.00195312 25.8485 0.0686377 25.9812 0.189019C26.1139 0.309401 26.197 0.47486 26.2143 0.653173C28.0377 19.4312 31.5689 22.9555 50.3469 24.7788C50.5252 24.7962 50.6906 24.8794 50.811 25.012C50.9313 25.1447 50.9981 25.3175 50.9981 25.4966C50.9981 25.6758 50.9313 25.8485 50.811 25.9812C50.6906 26.1139 50.5252 26.197 50.3469 26.2144Z" fill="#056FD8"/>
</g>
<defs>
<clipPath id="clip0_1_11">
<rect width="51" height="51" fill="white"/>
</clipPath>
</defs>
</svg>
